<?xml version="1.0" encoding="UTF-8" standalone="no"?>
<!-- Created with Inkscape (http://www.inkscape.org/) -->

<svg
   xmlns:dc="http://purl.org/dc/elements/1.1/"
   xmlns:cc="http://creativecommons.org/ns#"
   xmlns:rdf="http://www.w3.org/1999/02/22-rdf-syntax-ns#"
   xmlns:svg="http://www.w3.org/2000/svg"
   xmlns="http://www.w3.org/2000/svg"
   xmlns:sodipodi="http://sodipodi.sourceforge.net/DTD/sodipodi-0.dtd"
   xmlns:inkscape="http://www.inkscape.org/namespaces/inkscape"
   width="170mm"
   height="170mm"
   viewBox="0 0 602.36221 602.3622"
   id="svg3400"
   version="1.1"
   inkscape:version="0.91 r13725"
   sodipodi:docname="cb-logo-white.svg">
  <defs
     id="defs3402" />
  <sodipodi:namedview
     id="base"
     pagecolor="#ffffff"
     bordercolor="#666666"
     borderopacity="1.0"
     inkscape:pageopacity="0.0"
     inkscape:pageshadow="2"
     inkscape:zoom="0.7"
     inkscape:cx="629.04815"
     inkscape:cy="336.70105"
     inkscape:document-units="px"
     inkscape:current-layer="layer1"
     showgrid="false"
     inkscape:window-width="1440"
     inkscape:window-height="851"
     inkscape:window-x="0"
     inkscape:window-y="1"
     inkscape:window-maximized="1"
     fit-margin-top="0"
     fit-margin-left="0"
     fit-margin-right="0"
     fit-margin-bottom="0" />
  <metadata
     id="metadata3405">
    <rdf:RDF>
      <cc:Work
         rdf:about="">
        <dc:format>image/svg+xml</dc:format>
        <dc:type
           rdf:resource="http://purl.org/dc/dcmitype/StillImage" />
        <dc:title></dc:title>
      </cc:Work>
    </rdf:RDF>
  </metadata>
  <g
     inkscape:label="Layer 1"
     inkscape:groupmode="layer"
     id="layer1"
     transform="translate(-88.214272,-71.603121)">
    <path
       style="fill:#ffffff"
       d="M 329.51526,567.42329 C 283.20984,563.25466 229.26688,535.92921 193.6607,498.60457 176.58105,480.7006 164.29266,462.52581 156.68267,443.9133 l -3.92295,-9.59476 -23.85946,-16.82639 C 102.57515,398.9269 96.785701,394.31761 96.785701,391.9241 c 0,-0.88422 7.171879,-6.6358 15.937499,-12.78129 39.82035,-27.91761 40.01592,-28.07529 42.29934,-34.10206 15.77598,-41.63864 55.94211,-82.63001 104.41706,-106.5624 24.01581,-11.85675 46.50265,-18.47376 71.49625,-21.03859 12.58838,-1.29181 15.84985,-0.62106 15.84985,3.25969 0,0.88141 -41.76562,31.25 -92.8125,67.48574 -51.04687,36.23573 -93.4331,66.6591 -94.19162,67.60747 -2.96815,3.71113 -6.01942,22.33887 -6.01942,36.74809 0,14.399 3.04455,32.99875 6.01942,36.77385 0.75852,0.96255 42.44162,30.83118 92.62912,66.37471 50.1875,35.54354 92.08421,65.41745 93.10381,66.38648 1.40772,1.33788 1.52587,2.28262 0.49103,3.92591 -1.68375,2.6737 -2.14244,2.71325 -16.49028,1.42159 z m -0.33372,-7.82413 c -0.28646,-0.24287 -35.67709,-25.37082 -78.64584,-55.83989 -42.96875,-30.46904 -80.02109,-56.82645 -82.33854,-58.57197 l -4.21354,-3.17369 4.03814,8.07608 c 10.22892,20.45729 29.94588,44.28367 50.63894,61.19316 27.2294,22.25071 62.51505,39.57249 94.375,46.32882 9.88741,2.09675 17.35956,3.01655 16.14584,1.98749 z M 148.73727,418.47825 c -3.01993,-14.25019 -3.01343,-37.6455 0.0144,-51.94719 0.86234,-4.07316 0.57054,-3.91768 -19.60782,10.44744 -11.26575,8.02016 -20.48319,15.05602 -20.48319,15.63524 0,0.85721 38.88627,29.52587 40.46875,29.83533 0.25781,0.0504 0.0813,-1.73645 -0.39218,-3.97082 z m 102.70288,-137.8125 c 47.12555,-33.44959 76.62823,-55.14988 75.29541,-55.38251 -3.82711,-0.668 -28.8589,5.557 -41.82486,10.40115 -14.09809,5.26712 -27.88314,11.94681 -40.31685,19.53596 -34.15368,20.84634 -65.90339,54.71601 -78.71902,83.9752 l -1.54606,3.52981 4.81224,-3.52981 c 2.64673,-1.94139 39.68134,-28.2798 82.29914,-58.5298 z m 184.58324,286.29357 c -1.49695,-1.10363 -1.70746,-34.51497 -1.43364,-227.54357 l 0.32095,-226.25 3.125,0 3.125,0 0.32578,53.25126 0.32577,53.25126 10.92423,0.79449 c 6.00832,0.43698 16.54922,2.16798 23.42422,3.84668 64.99778,15.87082 125.35288,64.10401 148.0749,118.33505 l 3.97146,9.47875 28.03932,19.75602 c 17.20457,12.12206 28.03932,20.5515 28.03932,21.81464 0,1.263 -10.81415,9.67808 -27.98159,21.77395 l -27.9816,19.71536 -4.02917,9.61628 c -23.07383,55.0692 -84.17258,103.44477 -150.30849,119.00832 -13.41671,3.15731 -35.47025,4.98818 -37.96146,3.15151 z m 37.92795,-10.71612 c 47.69714,-11.10169 98.33697,-45.02634 126.80979,-84.95245 7.05328,-9.8905 17.15337,-28.34221 14.68465,-26.82716 -2.36775,1.45306 -162.85498,114.50835 -163.66008,115.29038 -1.01435,0.98531 11.07664,-0.92977 22.16564,-3.51077 z m 58.28504,-62.64396 c 48.90837,-34.48034 89.27883,-63.23266 89.71213,-63.89408 2.51989,-3.84647 5.36073,-22.87883 5.36073,-35.91441 0,-15.0446 -3.19946,-33.74735 -6.30426,-36.85215 -2.21045,-2.21045 -177.54833,-125.64785 -178.47774,-125.64785 -0.40785,0 -0.74154,73.125 -0.74154,162.5 0,89.375 0.34343,162.5 0.76318,162.5 0.41973,0 40.77911,-28.21119 89.6875,-62.69151 z m 121.18265,-85.43349 c 10.76626,-7.5625 19.5844,-14.05282 19.59585,-14.42295 0.0256,-0.82855 -39.44028,-28.70205 -40.63904,-28.70205 -0.47364,0 -0.51864,1.36473 -0.1,3.03274 3.06894,12.22761 3.04747,39.29238 -0.0409,51.5975 -0.46796,1.86446 -0.29987,2.99763 0.40349,2.72023 0.66305,-0.26151 10.01431,-6.66297 20.78059,-14.22547 z m -41.63992,-74.0625 c -23.35357,-43.30945 -71.04778,-81.54389 -122.6859,-98.35208 -12.76486,-4.15496 -33.7716,-8.81845 -35.96327,-7.98383 -0.84604,0.32218 162.01155,115.89477 163.45185,115.99431 0.23159,0.016 -1.92961,-4.33028 -4.80268,-9.6584 z"
       id="path3473"
       inkscape:connector-curvature="0" />
  </g>
</svg>
